<svg width="11" height="14" viewBox="0 0 11 14" fill="none" xmlns="http://www.w3.org/2000/svg">
<path fill-rule="evenodd" clip-rule="evenodd" d="M0 5.03338C0 2.25064 2.25064 0 5.03338 0C7.81613 0 10.0668 2.25064 10.0668 5.03338C10.0668 8.03184 6.88855 12.1664 5.58706 13.7411C5.29944 14.0863 4.77453 14.0863 4.4869 13.7411C3.17822 12.1664 0 8.03184 0 5.03338ZM3.23575 5.03339C3.23575 6.02568 4.04109 6.83102 5.03339 6.83102C6.02568 6.83102 6.83102 6.02568 6.83102 5.03339C6.83102 4.04109 6.02568 3.23575 5.03339 3.23575C4.04109 3.23575 3.23575 4.04109 3.23575 5.03339Z" fill="#7D28F7"/>
</svg>
